<svg width="12" height="12" viewBox="0 0 12 12" fill="none" xmlns="http://www.w3.org/2000/svg">
<path fill-rule="evenodd" clip-rule="evenodd" d="M5.60333 1.00051C5.63884 0.925308 5.69498 0.861747 5.76523 0.817233C5.83547 0.772719 5.91692 0.749084 6.00008 0.749084C6.08324 0.749084 6.16469 0.772719 6.23494 0.817233C6.30518 0.861747 6.36133 0.925308 6.39683 1.00051L7.80833 4.07551L11.2366 4.43851C11.6093 4.47751 11.7601 4.92901 11.4818 5.17501L8.92508 7.43776L9.63233 10.737C9.70883 11.0955 9.31583 11.3745 8.99108 11.1923L6.00008 9.51601L3.00833 11.1923C2.68358 11.3753 2.29058 11.0955 2.36708 10.737L3.07508 7.43776L0.517583 5.17501C0.240083 4.92901 0.390083 4.47751 0.762833 4.43851L4.19033 4.07551L5.60258 1.00051H5.60333Z" fill="#FFC642"/>
</svg>
