<svg width="34" height="46" viewBox="0 0 34 46" fill="none" xmlns="http://www.w3.org/2000/svg">
<path d="M17 0.5C7.90625 0.5 0.500002 7.90625 0.500002 17V36.3659C0.498234 38.7678 1.44108 41.0741 3.125 42.7869C3.95087 43.6442 4.94101 44.3262 6.03632 44.7924C7.13162 45.2585 8.30963 45.4992 9.5 45.5C12.9556 45.5 15.7981 44.0356 17.9488 41.1481C18.3688 40.5856 18.8441 39.7663 19.3944 38.8184C20.8306 36.3463 22.7966 32.9619 25.3166 31.2491C27.7325 29.6075 29.7444 27.5422 31.1291 25.2753C32.7041 22.7131 33.5 19.9287 33.5 17C33.5 7.90625 26.0984 0.5 17 0.5ZM26 17.75C25.6022 17.75 25.2206 17.592 24.9393 17.3107C24.658 17.0294 24.5 16.6478 24.5 16.25C24.5 12.5281 21.1353 9.5 17 9.5C12.8647 9.5 9.5 12.5281 9.5 16.25V19.1019C12.0491 18.3669 14.975 18.4719 15.5263 18.5C16.3494 18.5078 17.1547 18.7413 17.8543 19.1751C18.554 19.6088 19.1213 20.2261 19.4945 20.9599C19.8676 21.6937 20.0324 22.5157 19.9708 23.3366C19.9091 24.1575 19.6235 24.9458 19.145 25.6156C19.1169 25.6541 19.0878 25.6916 19.0559 25.7281C17.5044 27.5094 15.6809 29.9919 15.4503 30.8844C15.3425 31.2616 15.0912 31.5816 14.7502 31.7757C14.4093 31.9698 14.0058 32.0226 13.6264 31.9228C13.247 31.823 12.9218 31.5785 12.7205 31.2417C12.5192 30.9049 12.4579 30.5027 12.5497 30.1213C13.0663 28.1581 16.0119 24.665 16.7366 23.8259C16.8858 23.5997 16.9709 23.3373 16.983 23.0666C16.995 22.7959 16.9335 22.527 16.8049 22.2884C16.6763 22.0499 16.4856 21.8506 16.2528 21.7118C16.0201 21.5729 15.7541 21.4998 15.4831 21.5H15.4006C13.8444 21.4166 11.0984 21.575 9.5 22.2791V27.5C9.5 27.8978 9.34197 28.2794 9.06066 28.5607C8.77936 28.842 8.39783 29 8 29C7.60218 29 7.22065 28.842 6.93934 28.5607C6.65804 28.2794 6.5 27.8978 6.5 27.5V16.25C6.5 10.8734 11.21 6.5 17 6.5C22.79 6.5 27.5 10.8734 27.5 16.25C27.5 16.6478 27.342 17.0294 27.0607 17.3107C26.7794 17.592 26.3978 17.75 26 17.75Z" fill="#B5BABF"/>
</svg>
