<svg width="40" height="40" viewBox="0 0 40 40" fill="none" xmlns="http://www.w3.org/2000/svg">
<path d="M4.40278 39.5C3.8107 39.4972 3.24387 39.2598 2.82658 38.8397C2.4093 38.4197 2.17562 37.8513 2.17678 37.2592C2.18196 37.0342 2.21709 36.8108 2.28124 36.595L3.8848 30.7946C3.95184 30.5805 3.8761 30.3646 3.77773 30.194L3.75857 30.1592C3.75161 30.1478 3.71853 30.1017 3.69502 30.0677C3.67152 30.0338 3.64453 29.9972 3.62016 29.9615L3.60362 29.938C1.57884 26.8692 0.499704 23.2735 0.500093 19.5969C0.484423 14.5835 2.44578 9.84694 6.02462 6.25337C9.72796 2.54315 14.6814 0.500002 19.9848 0.500002C24.4838 0.49778 28.8494 2.02806 32.3623 4.83875C35.7967 7.6027 38.1837 11.4548 39.0839 15.6926C39.361 16.98 39.5005 18.2931 39.5 19.61C39.5 24.7401 37.5291 29.5585 33.9494 33.179C30.3383 36.8353 25.4893 38.8427 20.2965 38.8427C18.4683 38.8427 16.1291 38.3761 15.0061 38.0593C13.655 37.6815 12.3744 37.1887 12.2334 37.1365C12.0842 37.0793 11.9257 37.0498 11.7659 37.0494C11.5926 37.0484 11.4208 37.0824 11.261 37.1496L11.187 37.1783L5.31251 39.3006C5.02399 39.4221 4.71566 39.4897 4.40278 39.5Z" fill="#B5BABF"/>
</svg>
