<svg width="48" height="48" viewBox="0 0 48 48" xmlns="http://www.w3.org/2000/svg">
<path d="M34.125 21H21C19.8065 21 18.6619 20.5259 17.818 19.682C16.9741 18.8381 16.5 17.6935 16.5 16.5V3.375C16.5 3.27554 16.4605 3.18016 16.3902 3.10984C16.3198 3.03951 16.2245 3 16.125 3H7.5C5.9087 3 4.38258 3.63214 3.25736 4.75736C2.13214 5.88258 1.5 7.4087 1.5 9V39C1.5 40.5913 2.13214 42.1174 3.25736 43.2426C4.38258 44.3679 5.9087 45 7.5 45H28.5C30.0913 45 31.6174 44.3679 32.7426 43.2426C33.8679 42.1174 34.5 40.5913 34.5 39V21.375C34.5 21.2755 34.4605 21.1802 34.3902 21.1098C34.3198 21.0395 34.2245 21 34.125 21Z" />
<path d="M33.3019 17.6803L19.8197 4.19808C19.7935 4.17202 19.7601 4.15428 19.7239 4.14711C19.6876 4.13994 19.65 4.14366 19.6159 4.15778C19.5817 4.17191 19.5525 4.19582 19.5318 4.22651C19.5112 4.2572 19.5002 4.2933 19.5 4.33027V16.5C19.5 16.8978 19.658 17.2793 19.9393 17.5606C20.2206 17.8419 20.6022 18 21 18H33.1697C33.2066 17.9998 33.2427 17.9887 33.2734 17.9681C33.3041 17.9475 33.328 17.9183 33.3422 17.8841C33.3563 17.8499 33.36 17.8124 33.3528 17.7761C33.3457 17.7398 33.3279 17.7065 33.3019 17.6803Z" fill="#B5BABF"/>
</svg>
