<svg width="32" height="32" viewBox="0 0 32 32"  xmlns="http://www.w3.org/2000/svg">
<path d="M5.60186 28.3334C5.20713 28.3315 4.82925 28.1732 4.55106 27.8932C4.27287 27.6132 4.11708 27.2343 4.11785 26.8395C4.12131 26.6895 4.14473 26.5406 4.1875 26.3967L5.25654 22.5298C5.30122 22.387 5.25073 22.2431 5.18515 22.1294L5.17238 22.1061C5.16774 22.0986 5.14568 22.0678 5.13002 22.0452C5.11435 22.0226 5.09635 21.9982 5.0801 21.9744L5.06908 21.9587C3.71923 19.9129 2.9998 17.5157 3.00006 15.0647C2.98962 11.7224 4.29719 8.56467 6.68308 6.16896C9.15197 3.69547 12.4543 2.33338 15.9899 2.33338C18.9892 2.33189 21.8996 3.35208 24.2416 5.22588C26.5311 7.06851 28.1225 9.63659 28.7226 12.4618C28.9073 13.32 29.0003 14.1955 29 15.0734C29 18.4934 27.686 21.7057 25.2996 24.1194C22.8922 26.5569 19.6595 27.8952 16.1976 27.8952C14.9789 27.8952 13.4194 27.5841 12.6707 27.3729C11.77 27.121 10.9163 26.7925 10.8223 26.7577C10.7228 26.7196 10.6172 26.6999 10.5106 26.6997C10.3951 26.699 10.2805 26.7217 10.174 26.7664L10.1247 26.7856L6.20834 28.2005C6.01599 28.2814 5.81044 28.3265 5.60186 28.3334Z"/>
</svg>
