<svg width="48" height="48" viewBox="0 0 48 48" fill="none" xmlns="http://www.w3.org/2000/svg">
<path d="M3.66619 36.4847C3.66619 36.4913 3.66619 36.5034 3.65869 36.5203C3.6615 36.5091 3.66338 36.4969 3.66619 36.4847ZM39.2406 38.025C38.9319 38.0183 38.6271 37.9548 38.3415 37.8375L33.0184 35.9503L32.979 35.9344C32.8629 35.886 32.7382 35.8618 32.6124 35.8631C32.4965 35.8633 32.3816 35.8842 32.2731 35.925C32.1437 35.9738 30.9784 36.4116 29.7559 36.7472C29.0931 36.9291 26.7859 37.5225 24.9343 37.5225C20.2018 37.5225 15.7768 35.7038 12.4759 32.4009C10.8633 30.7983 9.58462 28.8916 8.71386 26.7914C7.84311 24.6912 7.39758 22.4392 7.40307 20.1656C7.40303 18.981 7.53064 17.7998 7.78369 16.6425C8.60775 12.8344 10.7903 9.37032 13.929 6.89251C17.1487 4.36692 21.1235 2.9961 25.2156 3.00001C30.1103 3.00001 34.6712 4.87501 38.0593 8.26688C41.2618 11.4797 43.0168 15.7041 43.0028 20.1609C43 23.4727 42.0111 26.7087 40.1621 29.4563L40.1443 29.4825L40.0749 29.5763C40.059 29.5978 40.0431 29.6184 40.0281 29.64L40.014 29.6653C39.9767 29.7287 39.9429 29.7942 39.9128 29.8613L41.3884 35.1056C41.4536 35.322 41.489 35.5463 41.4934 35.7722C41.4938 36.0681 41.4357 36.3613 41.3226 36.6347C41.2096 36.9082 41.0436 37.1567 40.8344 37.366C40.6251 37.5753 40.3766 37.7412 40.1031 37.8543C39.8296 37.9674 39.5365 38.0254 39.2406 38.025Z" fill="#B5BABF"/>
<path d="M26.1129 39.8803C26.016 39.6919 25.8797 39.5265 25.7132 39.3955C25.5468 39.2645 25.3541 39.1708 25.1482 39.1209C24.6063 38.9775 23.9744 39.0018 23.4916 38.9662C18.9329 38.6492 14.643 36.6928 11.4147 33.4584C8.54481 30.6045 6.67964 26.8956 6.10005 22.89C5.9688 21.9768 5.9688 21.75 5.9688 21.75C5.96874 21.4453 5.87591 21.1479 5.70267 20.8973C5.52943 20.6467 5.28399 20.4548 4.99899 20.3471C4.714 20.2394 4.40298 20.221 4.1073 20.2945C3.81162 20.3679 3.54531 20.5296 3.3438 20.7581C3.3438 20.7581 2.60505 21.5625 2.2563 22.3697C1.27818 24.6233 0.86106 27.0805 1.04067 29.5306C1.22027 31.9808 1.99126 34.3509 3.28755 36.4378C3.5313 36.8437 3.5313 37.0312 3.47692 37.4531C3.22098 38.7759 2.77286 41.1093 2.53942 42.3196C2.46213 42.7121 2.49088 43.1182 2.62271 43.4958C2.75454 43.8735 2.98468 44.2092 3.28942 44.4684L3.33255 44.505C3.73568 44.8251 4.23524 44.9996 4.75005 45C5.03961 45.0002 5.32636 44.9432 5.5938 44.8321L10.6104 42.8962C10.7831 42.8306 10.9739 42.8306 11.1466 42.8962C13.1219 43.6312 15.1779 44.0212 17.126 44.0212C19.5533 44.0235 21.9512 43.4902 24.1488 42.4593C24.6607 42.2193 25.4613 41.9587 25.93 41.4168C26.1074 41.2067 26.2193 40.9491 26.2518 40.676C26.2843 40.4028 26.236 40.1262 26.1129 39.8803Z" fill="#B5BABF"/>
</svg>
