<svg width="32" height="32" viewBox="0 0 32 32" fill="none" xmlns="http://www.w3.org/2000/svg">
<path d="M3.77648 24.3231C3.77648 24.3275 3.77648 24.3356 3.77148 24.3469C3.77336 24.3394 3.77461 24.3313 3.77648 24.3231ZM27.4927 25.35C27.287 25.3456 27.0838 25.3032 26.8934 25.225L23.3446 23.9669L23.3184 23.9563C23.241 23.924 23.1578 23.9078 23.074 23.9088C22.9967 23.9088 22.9201 23.9228 22.8477 23.95C22.7615 23.9825 21.9846 24.2744 21.1696 24.4981C20.7277 24.6194 19.1896 25.015 17.9552 25.015C14.8002 25.015 11.8502 23.8025 9.64961 21.6006C8.57455 20.5322 7.7221 19.2611 7.1416 17.861C6.5611 16.4608 6.26408 14.9595 6.26773 13.4438C6.26771 12.654 6.35278 11.8665 6.52148 11.095C7.07086 8.55626 8.52586 6.24688 10.6184 4.59501C12.7648 2.91128 15.4147 1.9974 18.1427 2.00001C21.4059 2.00001 24.4465 3.25001 26.7052 5.51126C28.8402 7.65313 30.0102 10.4694 30.0009 13.4406C29.999 15.6485 29.3397 17.8058 28.1071 19.6375L28.0952 19.655L28.049 19.7175C28.0384 19.7319 28.0277 19.7456 28.0177 19.76L28.0084 19.7769C27.9835 19.8192 27.961 19.8628 27.9409 19.9075L28.9246 23.4038C28.9681 23.548 28.9917 23.6975 28.9946 23.8481C28.9949 24.0454 28.9562 24.2408 28.8808 24.4232C28.8054 24.6055 28.6948 24.7712 28.5553 24.9107C28.4158 25.0502 28.2501 25.1608 28.0678 25.2362C27.8854 25.3116 27.69 25.3503 27.4927 25.35Z" fill="#B5BABF"/>
<path d="M18.7409 26.5869C18.6763 26.4613 18.5855 26.3511 18.4745 26.2637C18.3635 26.1764 18.2351 26.114 18.0978 26.0807C17.7366 25.9851 17.3153 26.0013 16.9934 25.9776C13.9543 25.7662 11.0943 24.4619 8.94218 22.3057C7.02889 20.4031 5.78545 17.9305 5.39905 15.2601C5.31155 14.6513 5.31155 14.5001 5.31155 14.5001C5.31152 14.297 5.24963 14.0987 5.13414 13.9316C5.01864 13.7645 4.85501 13.6366 4.66502 13.5648C4.47503 13.493 4.26767 13.4808 4.07056 13.5297C3.87344 13.5787 3.6959 13.6865 3.56155 13.8388C3.56155 13.8388 3.06905 14.3751 2.83655 14.9132C2.18448 16.4156 1.9064 18.0537 2.02613 19.6872C2.14587 21.3206 2.65986 22.9007 3.52405 24.2919C3.68655 24.5626 3.68655 24.6876 3.6503 24.9688C3.47968 25.8507 3.18093 27.4063 3.0253 28.2132C2.97378 28.4748 2.99294 28.7455 3.08083 28.9973C3.16872 29.2491 3.32214 29.4729 3.5253 29.6457L3.55405 29.6701C3.82281 29.8835 4.15585 29.9998 4.49905 30.0001C4.6921 30.0002 4.88327 29.9622 5.06155 29.8882L8.40593 28.5976C8.52108 28.5538 8.64828 28.5538 8.76343 28.5976C10.0803 29.0876 11.4509 29.3476 12.7497 29.3476C14.3679 29.3491 15.9665 28.9935 17.4316 28.3063C17.7728 28.1463 18.3066 27.9726 18.6191 27.6113C18.7373 27.4712 18.8119 27.2995 18.8336 27.1174C18.8552 26.9353 18.823 26.7509 18.7409 26.5869Z" fill="#B5BABF"/>
</svg>
