<svg width="48" height="48" viewBox="0 0 48 48" fill="none" xmlns="http://www.w3.org/2000/svg">
<path d="M2.81824 46.5001H26.7246C27.4528 46.5001 28.043 45.9099 28.043 45.1817V43.7754C28.043 42.3191 26.8626 41.1387 25.4063 41.1387V39.5625C25.4063 37.4754 23.7082 35.7773 21.6211 35.7773H7.92176C5.83469 35.7773 4.13661 37.4754 4.13661 39.5625V41.1387C2.68023 41.1387 1.49988 42.3191 1.49988 43.7754V45.1817C1.49988 45.9095 2.0904 46.5001 2.81824 46.5001Z" fill="#B5BABF"/>
<path d="M18.0001 30.5342C18.8762 31.697 20.5297 31.9294 21.6925 31.0529C22.8557 30.1768 23.0878 28.5233 22.2116 27.3601L14.2774 16.8314C13.4009 15.6682 11.7478 15.4361 10.5849 16.3123C9.42174 17.1888 9.18931 18.8419 10.0658 20.0051L18.0001 30.5342Z" fill="#B5BABF"/>
<path d="M36.9519 16.2526C37.8284 17.4154 39.4815 17.6478 40.6447 16.7713C41.8075 15.8952 42.0399 14.2421 41.1634 13.0789L33.2292 2.55014C32.353 1.38695 30.6996 1.15452 29.5368 2.03103C28.3739 2.90754 28.1415 4.56065 29.018 5.72383L36.9519 16.2526Z" fill="#B5BABF"/>
<path d="M31.1686 23.9121C33.1173 22.4437 34.5802 20.6203 35.4952 18.7004L26.2632 6.44922C24.1655 6.79975 22.0098 7.70304 20.0607 9.17178C18.112 10.6402 16.6491 12.4636 15.7341 14.3831L24.9661 26.635C27.0638 26.2845 29.2196 25.3808 31.1686 23.9121Z" fill="#B5BABF"/>
<path d="M34.7286 24.2555C34.1147 24.881 33.4682 25.4808 32.7555 26.0181C32.0424 26.5551 31.2874 27.0114 30.5173 27.4292L32.2364 29.7106L36.4479 26.5372L34.7286 24.2555Z" fill="#B5BABF"/>
<path d="M38.0348 28.6428L33.8232 31.8162L41.7575 42.3453C42.634 43.5085 44.2871 43.7405 45.45 42.8644C46.6131 41.9879 46.8452 40.3348 45.9691 39.1716L38.0348 28.6428Z" fill="#B5BABF"/>
</svg>
