<svg width="32" height="32" viewBox="0 0 32 32" fill="none" xmlns="http://www.w3.org/2000/svg">
<path d="M1.87891 31H17.8165C18.302 31 18.6954 30.6066 18.6954 30.1211V29.1836C18.6954 28.2127 17.9085 27.4258 16.9376 27.4258V26.375C16.9376 24.9836 15.8055 23.8516 14.4142 23.8516H5.28126C3.88988 23.8516 2.75782 24.9836 2.75782 26.375V27.4258C1.7869 27.4258 1 28.2127 1 29.1836V30.1211C1 30.6064 1.39368 31 1.87891 31Z" fill="#B5BABF"/>
<path d="M12 20.356C12.5841 21.1312 13.6864 21.2862 14.4617 20.7019C15.2371 20.1178 15.3919 19.0155 14.8077 18.24L9.51826 11.2208C8.93392 10.4454 7.83185 10.2906 7.05662 10.8748C6.28116 11.4591 6.12621 12.5612 6.71055 13.3366L12 20.356Z" fill="#B5BABF"/>
<path d="M24.6346 10.835C25.2189 11.6102 26.321 11.7652 27.0964 11.1808C27.8717 10.5967 28.0266 9.49466 27.4423 8.71921L22.1528 1.70005C21.5687 0.924596 20.4664 0.769642 19.6912 1.35398C18.9159 1.93832 18.761 3.04039 19.3453 3.81585L24.6346 10.835Z" fill="#B5BABF"/>
<path d="M20.7789 15.9415C22.0781 14.9625 23.0533 13.7469 23.6633 12.467L17.5086 4.29956C16.1102 4.53325 14.673 5.13544 13.3736 6.1146C12.0745 7.09354 11.0992 8.30913 10.4893 9.58882L16.6439 17.7567C18.0424 17.523 19.4796 16.9206 20.7789 15.9415Z" fill="#B5BABF"/>
<path d="M23.1522 16.1703C22.743 16.5873 22.312 16.9872 21.8368 17.3454C21.3614 17.7033 20.8581 18.0075 20.3447 18.2861L21.4907 19.807L24.2985 17.6914L23.1522 16.1703Z" fill="#B5BABF"/>
<path d="M25.3565 19.0952L22.5488 21.2108L27.8383 28.2302C28.4227 29.0056 29.5247 29.1604 30.3 28.5762C31.0754 27.9919 31.2302 26.8898 30.646 26.1144L25.3565 19.0952Z" fill="#B5BABF"/>
</svg>
