<svg width="32" height="32" viewBox="0 0 32 32" fill="none" xmlns="http://www.w3.org/2000/svg">
<path d="M28 25H4C3.73478 25 3.48043 24.8946 3.29289 24.7071C3.10536 24.5196 3 24.2652 3 24C3 23.7348 3.10536 23.4804 3.29289 23.2929C3.48043 23.1054 3.73478 23 4 23H28C28.2652 23 28.5196 23.1054 28.7071 23.2929C28.8946 23.4804 29 23.7348 29 24C29 24.2652 28.8946 24.5196 28.7071 24.7071C28.5196 24.8946 28.2652 25 28 25ZM26 28H6C5.73478 28 5.48043 27.8946 5.29289 27.7071C5.10536 27.5196 5 27.2652 5 27C5 26.7348 5.10536 26.4804 5.29289 26.2929C5.48043 26.1054 5.73478 26 6 26H26C26.2652 26 26.5196 26.1054 26.7071 26.2929C26.8946 26.4804 27 26.7348 27 27C27 27.2652 26.8946 27.5196 26.7071 27.7071C26.5196 27.8946 26.2652 28 26 28ZM2 17H1V20C1 20.5304 1.21071 21.0391 1.58579 21.4142C1.96086 21.7893 2.46957 22 3 22H6V21C5.99884 19.9395 5.57704 18.9227 4.82715 18.1729C4.07725 17.423 3.06051 17.0012 2 17Z" fill="#B5BABF"/>
<path d="M30 15H31V11H30C28.4093 10.9982 26.8842 10.3655 25.7594 9.24063C24.6345 8.11581 24.0018 6.59074 24 5V4H8V5C7.99818 6.59074 7.36546 8.11581 6.24063 9.24063C5.11581 10.3655 3.59074 10.9982 2 11H1V15H2C3.59074 15.0018 5.11581 15.6345 6.24063 16.7594C7.36546 17.8842 7.99818 19.4093 8 21V22H24V21C24.0018 19.4093 24.6345 17.8842 25.7594 16.7594C26.8842 15.6345 28.4093 15.0018 30 15ZM16 19C14.8133 19 13.6533 18.6481 12.6666 17.9888C11.6799 17.3295 10.9108 16.3925 10.4567 15.2961C10.0026 14.1997 9.88378 12.9933 10.1153 11.8295C10.3468 10.6656 10.9182 9.59647 11.7574 8.75736C12.5965 7.91824 13.6656 7.3468 14.8295 7.11529C15.9933 6.88378 17.1997 7.0026 18.2961 7.45672C19.3925 7.91085 20.3295 8.67988 20.9888 9.66658C21.6481 10.6533 22 11.8133 22 13C21.9982 14.5907 21.3655 16.1158 20.2406 17.2406C19.1158 18.3655 17.5907 18.9982 16 19Z" fill="#B5BABF"/>
<path d="M16 17C18.2091 17 20 15.2091 20 13C20 10.7909 18.2091 9 16 9C13.7909 9 12 10.7909 12 13C12 15.2091 13.7909 17 16 17Z" fill="#B5BABF"/>
<path d="M26 21V22H29C29.5304 22 30.0391 21.7893 30.4142 21.4142C30.7893 21.0391 31 20.5304 31 20V17H30C28.9395 17.0012 27.9227 17.423 27.1729 18.1729C26.423 18.9227 26.0012 19.9395 26 21ZM30 9H31V6C31 5.46957 30.7893 4.96086 30.4142 4.58579C30.0391 4.21071 29.5304 4 29 4H26V5C26.0012 6.06051 26.423 7.07725 27.1729 7.82715C27.9227 8.57704 28.9395 8.99884 30 9ZM6 5V4H3C2.46957 4 1.96086 4.21071 1.58579 4.58579C1.21071 4.96086 1 5.46957 1 6V9H2C3.06051 8.99884 4.07725 8.57704 4.82715 7.82715C5.57704 7.07725 5.99884 6.06051 6 5Z" fill="#B5BABF"/>
</svg>
