<svg width="32" height="32" viewBox="0 0 32 32" fill="none" xmlns="http://www.w3.org/2000/svg">
<path d="M28.27 22.8125L20.4625 10.445C20.1602 9.96519 19.9999 9.40961 20 8.8425V4H20.9725C21.5107 4 21.9725 3.58625 21.9994 3.04813C22.0059 2.91286 21.9849 2.77769 21.9376 2.65079C21.8903 2.5239 21.8178 2.40793 21.7243 2.30992C21.6309 2.21192 21.5185 2.13391 21.394 2.08064C21.2695 2.02736 21.1355 1.99993 21 2H11.0282C10.49 2 10.0282 2.41375 10.0013 2.95188C9.99478 3.08708 10.0158 3.22221 10.063 3.34906C10.1103 3.47591 10.1828 3.59185 10.2762 3.68985C10.3696 3.78785 10.4819 3.86587 10.6063 3.91918C10.7307 3.97249 10.8647 3.99999 11 4H12V8.8425C12.0004 9.40953 11.8398 9.96502 11.5369 10.4444L3.73004 22.8125C3.27855 23.5149 3.02563 24.3264 2.99812 25.1609C2.97061 25.9955 3.16953 26.8219 3.57379 27.5525C4.40254 29.0744 6.02254 30 7.75816 30H24.2419C25.9775 30 27.5975 29.0744 28.4263 27.5494C28.8299 26.8191 29.0285 25.9933 29.001 25.1594C28.9735 24.3255 28.7209 23.5145 28.27 22.8125ZM13.2288 11.5125C13.7332 10.7134 14.0006 9.78753 14 8.8425V4.25C14 4.1837 14.0264 4.12011 14.0733 4.07322C14.1201 4.02634 14.1837 4 14.25 4H17.75C17.8163 4 17.8799 4.02634 17.9268 4.07322C17.9737 4.12011 18 4.1837 18 4.25V8.8425C17.9996 9.78759 18.2673 10.7134 18.7719 11.5125L22.3844 17.2331C22.4322 17.3088 22.4588 17.396 22.4614 17.4854C22.464 17.5749 22.4425 17.6635 22.3992 17.7418C22.3559 17.8202 22.2924 17.8855 22.2152 17.9309C22.1381 17.9763 22.0502 18.0002 21.9607 18H10.0394C9.94995 18.0001 9.86211 17.9761 9.78505 17.9306C9.70799 17.8852 9.64455 17.8199 9.60133 17.7415C9.55811 17.6632 9.5367 17.5747 9.53933 17.4853C9.54196 17.3959 9.56854 17.3088 9.61629 17.2331L13.2288 11.5125Z" fill="#B5BABF"/>
</svg>
