<svg width="32" height="32" viewBox="0 0 32 32" fill="none" xmlns="http://www.w3.org/2000/svg">
<path d="M2 21.5385C2.00077 22.2727 2.29602 22.9766 2.82095 23.4958C3.34589 24.0149 4.05763 24.3069 4.8 24.3077H12.6097L12.3763 26.1538H9.46667C9.21913 26.1538 8.98173 26.2511 8.8067 26.4242C8.63167 26.5973 8.53333 26.8321 8.53333 27.0769C8.53333 27.3217 8.63167 27.5565 8.8067 27.7296C8.98173 27.9027 9.21913 28 9.46667 28H22.5333C22.7809 28 23.0183 27.9027 23.1933 27.7296C23.3683 27.5565 23.4667 27.3217 23.4667 27.0769C23.4667 26.8321 23.3683 26.5973 23.1933 26.4242C23.0183 26.2511 22.7809 26.1538 22.5333 26.1538H19.6237L19.3903 24.3077H27.2C27.9424 24.3069 28.6541 24.0149 29.179 23.4958C29.704 22.9766 29.9992 22.2727 30 21.5385V18.7692H2V21.5385ZM16 20.6154C16.1846 20.6154 16.365 20.6695 16.5185 20.771C16.672 20.8724 16.7916 21.0165 16.8623 21.1852C16.9329 21.3539 16.9514 21.5395 16.9154 21.7185C16.8794 21.8976 16.7905 22.0621 16.66 22.1912C16.5294 22.3203 16.3631 22.4082 16.1821 22.4438C16.001 22.4794 15.8134 22.4611 15.6428 22.3913C15.4723 22.3214 15.3265 22.2031 15.224 22.0513C15.1214 21.8995 15.0667 21.721 15.0667 21.5385C15.0667 21.2936 15.165 21.0589 15.34 20.8857C15.5151 20.7126 15.7525 20.6154 16 20.6154ZM30 6.76923C29.9992 6.03502 29.704 5.3311 29.179 4.81193C28.6541 4.29277 27.9424 4.00076 27.2 4H4.8C4.05763 4.00076 3.34589 4.29277 2.82095 4.81193C2.29602 5.3311 2.00077 6.03502 2 6.76923V17.8462H30V6.76923Z" fill="#B5BABF"/>
</svg>
