<svg width="42" height="36" viewBox="0 0 42 36" fill="none" xmlns="http://www.w3.org/2000/svg">
<path d="M0 26.3077C0.00115814 27.409 0.444029 28.4649 1.23143 29.2436C2.01883 30.0224 3.08645 30.4604 4.2 30.4615H15.9145L15.5645 33.2308H11.2C10.8287 33.2308 10.4726 33.3766 10.2101 33.6363C9.9475 33.896 9.8 34.2482 9.8 34.6154C9.8 34.9826 9.9475 35.3348 10.2101 35.5945C10.4726 35.8541 10.8287 36 11.2 36H30.8C31.1713 36 31.5274 35.8541 31.7899 35.5945C32.0525 35.3348 32.2 34.9826 32.2 34.6154C32.2 34.2482 32.0525 33.896 31.7899 33.6363C31.5274 33.3766 31.1713 33.2308 30.8 33.2308H26.4355L26.0855 30.4615H37.8C38.9136 30.4604 39.9812 30.0224 40.7686 29.2436C41.556 28.4649 41.9988 27.409 42 26.3077V22.1538H0V26.3077ZM21 24.9231C21.2769 24.9231 21.5476 25.0043 21.7778 25.1564C22.008 25.3086 22.1875 25.5248 22.2934 25.7778C22.3994 26.0308 22.4271 26.3092 22.3731 26.5778C22.3191 26.8464 22.1857 27.0931 21.99 27.2868C21.7942 27.4804 21.5447 27.6123 21.2731 27.6657C21.0016 27.7191 20.7201 27.6917 20.4642 27.5869C20.2084 27.4821 19.9898 27.3046 19.8359 27.0769C19.6821 26.8492 19.6 26.5815 19.6 26.3077C19.6 25.9405 19.7475 25.5883 20.01 25.3286C20.2726 25.069 20.6287 24.9231 21 24.9231ZM42 4.15385C41.9988 3.05253 41.556 1.99665 40.7686 1.2179C39.9812 0.439149 38.9136 0.00114542 37.8 0H4.2C3.08645 0.00114542 2.01883 0.439149 1.23143 1.2179C0.444029 1.99665 0.00115814 3.05253 0 4.15385V20.7692H42V4.15385Z" fill="#B5BABF"/>
</svg>
