<svg width="40" height="42" viewBox="0 0 40 42" fill="none" xmlns="http://www.w3.org/2000/svg">
<path d="M38.4053 31.2188L26.6941 12.6675C26.2406 11.9478 26.0001 11.1144 26.0003 10.2638V3H27.4591C28.2662 3 28.9591 2.37938 28.9994 1.57219C29.0091 1.36929 28.9776 1.16653 28.9067 0.976189C28.8357 0.785849 28.7269 0.611899 28.5867 0.464887C28.4465 0.317876 28.278 0.200866 28.0912 0.120954C27.9045 0.0410414 27.7034 -0.000108193 27.5003 2.13638e-07H12.5425C11.7353 2.13638e-07 11.0425 0.620625 11.0022 1.42781C10.9924 1.63063 11.0239 1.83331 11.0948 2.02359C11.1657 2.21387 11.2744 2.38778 11.4145 2.53477C11.5546 2.68177 11.723 2.7988 11.9097 2.87877C12.0963 2.95874 12.2973 2.99998 12.5003 3H14.0003V10.2638C14.0009 11.1143 13.76 11.9475 13.3056 12.6666L1.5953 31.2188C0.918065 32.2723 0.538684 33.4896 0.497419 34.7414C0.456155 35.9932 0.754546 37.2328 1.36093 38.3288C2.60405 40.6116 5.03405 42 7.63749 42H32.3631C34.9666 42 37.3966 40.6116 38.6397 38.3241C39.2452 37.2287 39.5431 35.99 39.5018 34.7391C39.4605 33.4882 39.0817 32.2718 38.4053 31.2188ZM15.8434 14.2687C16.6001 13.07 17.0012 11.6813 17.0003 10.2638V3.375C17.0003 3.27554 17.0398 3.18016 17.1101 3.10984C17.1805 3.03951 17.2758 3 17.3753 3H22.6253C22.7248 3 22.8201 3.03951 22.8905 3.10984C22.9608 3.18016 23.0003 3.27554 23.0003 3.375V10.2638C22.9997 11.6814 23.4012 13.0701 24.1581 14.2687L29.5769 22.8497C29.6485 22.9632 29.6884 23.094 29.6923 23.2282C29.6962 23.3624 29.664 23.4952 29.5991 23.6127C29.5341 23.7303 29.4388 23.8282 29.3231 23.8963C29.2074 23.9644 29.0755 24.0002 28.9412 24H11.0594C10.9252 24.0001 10.7934 23.9642 10.6778 23.896C10.5622 23.8278 10.4671 23.7298 10.4022 23.6123C10.3374 23.4948 10.3053 23.3621 10.3092 23.2279C10.3132 23.0938 10.3531 22.9632 10.4247 22.8497L15.8434 14.2687Z" fill="#B5BABF"/>
</svg>
