<svg width="48" height="48" fill="none" xmlns="http://www.w3.org/2000/svg"><path d="M2.818 46.5h23.907c.728 0 1.318-.59 1.318-1.318v-1.407a2.637 2.637 0 00-2.637-2.636v-1.577a3.79 3.79 0 00-3.785-3.785h-13.7a3.79 3.79 0 00-3.784 3.785v1.577A2.637 2.637 0 001.5 43.775v1.407c0 .727.59 1.318 1.318 1.318zM18 30.534a2.636 2.636 0 104.212-3.174l-7.935-10.529a2.637 2.637 0 10-4.211 3.174L18 30.535zm18.952-14.281a2.637 2.637 0 004.211-3.174L33.23 2.55a2.636 2.636 0 10-4.211 3.174l7.934 10.529zm-5.783 7.659c1.948-1.468 3.411-3.292 4.326-5.212L26.263 6.45c-2.098.35-4.253 1.253-6.202 2.722-1.949 1.468-3.412 3.292-4.327 5.211l9.232 12.252c2.098-.35 4.254-1.254 6.203-2.723zm3.56.344a17.755 17.755 0 01-1.974 1.762c-.713.537-1.468.993-2.238 1.411l1.72 2.282 4.21-3.174-1.718-2.281zm3.306 4.387l-4.212 3.173 7.934 10.53a2.637 2.637 0 104.212-3.174l-7.934-10.53z" fill="#B5BABF"/></svg>