<svg width="48" height="48" fill="none" xmlns="http://www.w3.org/2000/svg"><path d="M42 37.5H6a1.5 1.5 0 110-3h36a1.5 1.5 0 110 3zM39 42H9a1.5 1.5 0 110-3h30a1.5 1.5 0 110 3zM3 25.5H1.5V30a3 3 0 003 3H9v-1.5a6.006 6.006 0 00-6-6z" fill="#B5BABF"/><path d="M45 22.5h1.5v-6H45a9.01 9.01 0 01-9-9V6H12v1.5a9.01 9.01 0 01-9 9H1.5v6H3a9.01 9.01 0 019 9V33h24v-1.5a9.01 9.01 0 019-9zm-21 6a9 9 0 119-9 9.01 9.01 0 01-9 9z" fill="#B5BABF"/><path d="M24 25.5a6 6 0 100-12 6 6 0 000 12zm15 6V33h4.5a3 3 0 003-3v-4.5H45a6.006 6.006 0 00-6 6zm6-18h1.5V9a3 3 0 00-3-3H39v1.5a6.006 6.006 0 006 6zm-36-6V6H4.5a3 3 0 00-3 3v4.5H3a6.006 6.006 0 006-6z" fill="#B5BABF"/></svg>