<svg width="34" height="46" fill="none" xmlns="http://www.w3.org/2000/svg"><path d="M17 .5C7.906.5.5 7.906.5 17v19.366a9.15 9.15 0 002.625 6.42A8.86 8.86 0 009.5 45.5c3.456 0 6.298-1.464 8.449-4.352.42-.562.895-1.382 1.445-2.33 1.437-2.472 3.403-5.856 5.923-7.569 2.416-1.641 4.427-3.707 5.812-5.974C32.704 22.713 33.5 19.93 33.5 17 33.5 7.906 26.098.5 17 .5zm9 17.25a1.5 1.5 0 01-1.5-1.5c0-3.722-3.365-6.75-7.5-6.75s-7.5 3.028-7.5 6.75v2.852c2.55-.735 5.475-.63 6.026-.602a4.499 4.499 0 013.619 7.116 1.627 1.627 0 01-.09.112c-1.55 1.781-3.374 4.264-3.605 5.156a1.5 1.5 0 01-2.9-.763c.516-1.963 3.462-5.456 4.187-6.295a1.5 1.5 0 00-1.254-2.326h-.082c-1.557-.083-4.303.075-5.901.78v5.22a1.5 1.5 0 01-3 0V16.25c0-5.377 4.71-9.75 10.5-9.75s10.5 4.373 10.5 9.75a1.5 1.5 0 01-1.5 1.5z" fill="#B5BABF"/></svg>