<svg width="40" height="40" fill="none" xmlns="http://www.w3.org/2000/svg"><path d="M4.403 39.5a2.236 2.236 0 01-2.226-2.24c.005-.226.04-.45.104-.665l1.604-5.8c.067-.215-.009-.43-.107-.601l-.02-.035c-.006-.011-.04-.057-.063-.091l-.075-.107-.016-.023A18.774 18.774 0 01.5 19.597c-.016-5.014 1.946-9.75 5.525-13.344C9.728 2.543 14.68.5 19.985.5a19.796 19.796 0 0112.377 4.339c3.435 2.764 5.822 6.616 6.722 10.854.277 1.287.416 2.6.416 3.917 0 5.13-1.97 9.948-5.55 13.569-3.612 3.656-8.46 5.664-13.654 5.664-1.828 0-4.167-.467-5.29-.784-1.351-.377-2.632-.87-2.773-.922a1.315 1.315 0 00-.972.013l-.074.028-5.874 2.123a2.568 2.568 0 01-.91.199z" fill="#B5BABF"/></svg>