<svg width="32" height="32" xmlns="http://www.w3.org/2000/svg"><path d="M5.602 28.333a1.491 1.491 0 01-1.484-1.493c.003-.15.027-.3.07-.443l1.069-3.867c.044-.143-.006-.287-.072-.4l-.013-.024-.042-.06-.05-.072-.01-.015A12.516 12.516 0 013 15.065c-.01-3.343 1.297-6.5 3.683-8.896 2.469-2.474 5.771-3.836 9.307-3.836 3-.001 5.91 1.02 8.252 2.893 2.29 1.843 3.88 4.41 4.48 7.236.185.858.278 1.733.278 2.611 0 3.42-1.314 6.633-3.7 9.046-2.408 2.438-5.64 3.776-9.102 3.776-1.22 0-2.779-.31-3.527-.522-.901-.252-1.755-.58-1.849-.615a.876.876 0 00-.648.008l-.05.02L6.209 28.2a1.71 1.71 0 01-.606.132z"/></svg>