<svg width="32" height="32" fill="none" xmlns="http://www.w3.org/2000/svg"><path d="M3.776 24.323c0 .005 0 .013-.005.024l.005-.024zm23.717 1.027a1.672 1.672 0 01-.6-.125l-3.548-1.258-.027-.01a.643.643 0 00-.47-.006c-.087.032-.863.323-1.678.547-.442.121-1.98.517-3.215.517-3.155 0-6.105-1.213-8.305-3.414a11.46 11.46 0 01-3.382-8.157c0-.79.085-1.578.253-2.349.55-2.539 2.005-4.848 4.097-6.5A12.172 12.172 0 0118.143 2c3.263 0 6.303 1.25 8.562 3.511 2.135 2.142 3.305 4.958 3.296 7.93a11.117 11.117 0 01-1.894 6.196l-.012.018-.046.063-.031.042-.01.017a1.344 1.344 0 00-.067.13l.984 3.497c.043.144.067.294.07.444a1.5 1.5 0 01-1.502 1.502z" fill="#B5BABF"/><path d="M18.74 26.587a.984.984 0 00-.642-.506c-.361-.096-.783-.08-1.105-.103a12.612 12.612 0 01-8.05-3.672 12.45 12.45 0 01-3.544-7.046c-.087-.609-.087-.76-.087-.76a1 1 0 00-1.75-.661s-.493.536-.725 1.074a10.13 10.13 0 00.687 9.379c.163.27.163.396.126.677l-.625 3.244a1.5 1.5 0 00.5 1.433l.03.024c.268.213.6.33.944.33.193 0 .384-.038.563-.112l3.344-1.29a.503.503 0 01.357 0c1.317.49 2.688.75 3.987.75a11.001 11.001 0 004.682-1.042c.34-.16.875-.333 1.187-.695a.938.938 0 00.122-1.024z" fill="#B5BABF"/></svg>