<svg width="48" height="48" fill="none" xmlns="http://www.w3.org/2000/svg"><path d="M3.666 36.485c0 .006 0 .018-.007.035l.007-.035zm35.575 1.54a2.51 2.51 0 01-.9-.188l-5.323-1.887-.039-.016a.969.969 0 00-.706-.01c-.13.05-1.295.488-2.517.823-.663.182-2.97.776-4.822.776-4.732 0-9.157-1.82-12.458-5.122a17.19 17.19 0 01-5.073-12.235c0-1.185.128-2.366.38-3.524.825-3.808 3.007-7.272 6.146-9.75A18.259 18.259 0 0125.216 3c4.894 0 9.455 1.875 12.843 5.267 3.203 3.213 4.958 7.437 4.944 11.894a16.675 16.675 0 01-2.84 9.295l-.019.027-.07.093-.046.064-.014.025a2.005 2.005 0 00-.101.196l1.475 5.245c.066.216.101.44.105.666a2.249 2.249 0 01-2.252 2.253z" fill="#B5BABF"/><path d="M26.113 39.88a1.476 1.476 0 00-.965-.76c-.542-.142-1.174-.118-1.656-.154a18.917 18.917 0 01-12.077-5.508A18.676 18.676 0 016.1 22.89c-.131-.913-.131-1.14-.131-1.14a1.5 1.5 0 00-2.625-.992s-.739.805-1.088 1.612a15.196 15.196 0 001.032 14.068c.243.406.243.593.189 1.015-.256 1.323-.704 3.656-.938 4.867a2.25 2.25 0 00.75 2.148l.044.037c.403.32.902.495 1.417.495.29 0 .576-.057.844-.168l5.016-1.936a.755.755 0 01.537 0c1.975.735 4.03 1.125 5.979 1.125a16.5 16.5 0 007.023-1.562c.512-.24 1.312-.5 1.781-1.042a1.406 1.406 0 00.183-1.537z" fill="#B5BABF"/></svg>