<svg width="32" height="32" fill="none" xmlns="http://www.w3.org/2000/svg"><path d="M16 1C9.937 1 5 5.938 5 12v12.91a6.1 6.1 0 001.75 4.281A5.907 5.907 0 0011 31c2.304 0 4.199-.976 5.633-2.901.28-.375.596-.922.963-1.553.958-1.648 2.268-3.905 3.948-5.047 1.611-1.094 2.952-2.47 3.875-3.982C26.47 15.809 27 13.953 27 12c0-6.063-4.934-11-11-11zm6 11.5a1 1 0 01-1-1C21 9.019 18.757 7 16 7s-5 2.019-5 4.5v1.901c1.7-.49 3.65-.42 4.018-.401a3 3 0 012.412 4.744c-.019.025-.038.05-.06.075-1.034 1.187-2.25 2.842-2.403 3.437a1 1 0 01-1.934-.509c.345-1.308 2.308-3.637 2.791-4.196A1 1 0 0014.99 15h-.055c-1.038-.056-2.868.05-3.934.52V19a1 1 0 01-2 0v-7.5C9 7.916 12.14 5 16 5s7 2.916 7 6.5a1 1 0 01-1 1z" fill="#B5BABF"/></svg>