<svg width="32" height="32" fill="none" xmlns="http://www.w3.org/2000/svg"><path d="M1.879 31h15.938a.879.879 0 00.878-.879v-.937c0-.971-.787-1.758-1.757-1.758v-1.051a2.526 2.526 0 00-2.524-2.523H5.281a2.526 2.526 0 00-2.523 2.523v1.05c-.971 0-1.758.788-1.758 1.759v.937a.88.88 0 00.879.879zM12 20.356a1.758 1.758 0 102.808-2.116l-5.29-7.02a1.758 1.758 0 10-2.807 2.117L12 20.356zm12.635-9.521a1.758 1.758 0 002.807-2.116L22.152 1.7a1.757 1.757 0 10-2.807 2.116l5.29 7.019zm-3.856 5.106c1.3-.979 2.274-2.194 2.884-3.474L17.51 4.3c-1.399.233-2.836.835-4.135 1.815-1.3.979-2.275 2.194-2.885 3.474l6.155 8.168c1.398-.234 2.836-.836 4.135-1.816zm2.373.229a11.8 11.8 0 01-1.315 1.175 11.89 11.89 0 01-1.492.941l1.146 1.521 2.808-2.116-1.147-1.52zm2.205 2.925l-2.808 2.116 5.29 7.02a1.758 1.758 0 102.807-2.117l-5.29-7.019z" fill="#B5BABF"/></svg>