<svg width="32" height="32" fill="none" xmlns="http://www.w3.org/2000/svg"><path d="M28 25H4a1 1 0 010-2h24a1 1 0 010 2zm-2 3H6a1 1 0 010-2h20a1 1 0 010 2zM2 17H1v3a2 2 0 002 2h3v-1a4.004 4.004 0 00-4-4z" fill="#B5BABF"/><path d="M30 15h1v-4h-1a6.007 6.007 0 01-6-6V4H8v1a6.007 6.007 0 01-6 6H1v4h1a6.006 6.006 0 016 6v1h16v-1a6.006 6.006 0 016-6zm-14 4a6 6 0 116-6 6.006 6.006 0 01-6 6z" fill="#B5BABF"/><path d="M16 17a4 4 0 100-8 4 4 0 000 8zm10 4v1h3a2 2 0 002-2v-3h-1a4.004 4.004 0 00-4 4zm4-12h1V6a2 2 0 00-2-2h-3v1a4.005 4.005 0 004 4zM6 5V4H3a2 2 0 00-2 2v3h1a4.004 4.004 0 004-4z" fill="#B5BABF"/></svg>