<svg width="32" height="32" fill="none" xmlns="http://www.w3.org/2000/svg"><path d="M28.27 22.813l-7.808-12.368A3.005 3.005 0 0120 8.842V4h.973c.538 0 1-.414 1.026-.952A1 1 0 0021 2h-9.972c-.538 0-1 .414-1.027.952A1 1 0 0011 4h1v4.842c0 .568-.16 1.123-.463 1.602L3.73 22.812a4.625 4.625 0 00-.156 4.74C4.403 29.074 6.023 30 7.758 30h16.484c1.735 0 3.355-.926 4.184-2.45a4.626 4.626 0 00-.156-4.738zm-15.041-11.3c.504-.8.772-1.725.771-2.67V4.25a.25.25 0 01.25-.25h3.5a.25.25 0 01.25.25v4.592c0 .946.267 1.871.772 2.67l3.612 5.721a.5.5 0 01-.423.767H10.039a.5.5 0 01-.423-.767l3.613-5.72z" fill="#B5BABF"/></svg>