<svg width="32" height="32" fill="none" xmlns="http://www.w3.org/2000/svg"><path d="M2 21.538c0 .735.296 1.439.82 1.958a2.82 2.82 0 001.98.812h7.81l-.234 1.846h-2.91a.939.939 0 00-.66.27.918.918 0 000 1.306c.176.173.413.27.66.27h13.067a.939.939 0 00.66-.27.918.918 0 000-1.306.939.939 0 00-.66-.27h-2.91l-.233-1.846h7.81a2.821 2.821 0 001.979-.812c.525-.52.82-1.223.821-1.957v-2.77H2v2.77zm14-.923a.94.94 0 01.862.57.914.914 0 01-.202 1.006.937.937 0 01-1.017.2.931.931 0 01-.419-.34.916.916 0 01.116-1.165.939.939 0 01.66-.27zM30 6.77c0-.734-.296-1.438-.821-1.957A2.819 2.819 0 0027.2 4H4.8c-.742 0-1.454.293-1.979.812A2.757 2.757 0 002 6.769v11.077h28V6.77z" fill="#B5BABF"/></svg>