<svg width="42" height="36" fill="none" xmlns="http://www.w3.org/2000/svg"><path d="M0 26.308a4.135 4.135 0 001.231 2.936A4.228 4.228 0 004.2 30.462h11.715l-.35 2.769H11.2c-.371 0-.727.146-.99.405a1.377 1.377 0 000 1.958c.263.26.619.406.99.406h19.6c.371 0 .727-.146.99-.406a1.377 1.377 0 000-1.958 1.408 1.408 0 00-.99-.405h-4.364l-.35-2.77H37.8a4.228 4.228 0 002.969-1.217A4.135 4.135 0 0042 26.308v-4.154H0v4.154zm21-1.385c.277 0 .548.081.778.233.23.153.41.369.515.622a1.37 1.37 0 01-.303 1.509 1.405 1.405 0 01-1.526.3 1.397 1.397 0 01-.628-.51 1.374 1.374 0 01.174-1.748c.263-.26.619-.406.99-.406zm21-20.77a4.135 4.135 0 00-1.231-2.935A4.228 4.228 0 0037.8 0H4.2a4.228 4.228 0 00-2.969 1.218A4.135 4.135 0 000 4.154v16.615h42V4.154z" fill="#B5BABF"/></svg>