<svg width="40" height="42" fill="none" xmlns="http://www.w3.org/2000/svg"><path d="M38.405 31.219l-11.71-18.552A4.507 4.507 0 0126 10.264V3h1.46c.806 0 1.5-.62 1.54-1.428A1.502 1.502 0 0027.5 0H12.543c-.808 0-1.5.62-1.54 1.428A1.5 1.5 0 0012.5 3H14v7.264c0 .85-.24 1.684-.694 2.403L1.596 31.219a6.937 6.937 0 00-.235 7.11C2.604 40.612 5.034 42 7.637 42h24.726c2.604 0 5.034-1.388 6.277-3.676a6.937 6.937 0 00-.235-7.105zm-22.562-16.95A7.494 7.494 0 0017 10.264V3.375A.375.375 0 0117.375 3h5.25a.375.375 0 01.375.375v6.889c0 1.417.401 2.806 1.158 4.005l5.419 8.58A.75.75 0 0128.94 24H11.06a.75.75 0 01-.634-1.15l5.418-8.581z" fill="#B5BABF"/></svg>