<svg width="28" height="28" fill="none" xmlns="http://www.w3.org/2000/svg"><path d="M27.471.385c-.477-.445-1.227-.509-2.003-.167h-.002C24.651.578 2.375 11.081 1.468 11.51c-.165.063-1.606.654-1.457 1.97.132 1.186 1.29 1.678 1.431 1.734l5.664 2.132c.375 1.375 1.76 6.447 2.067 7.53.19.676.502 1.564 1.048 1.746.479.203.955.018 1.263-.248l3.463-3.53 5.59 4.791.132.088c.38.185.744.277 1.09.277.269 0 .526-.055.772-.166.837-.378 1.172-1.255 1.207-1.354l4.175-23.854c.255-1.274-.1-1.923-.442-2.241zm-15.37 17.814l-1.911 5.6-1.91-7 14.646-11.9-10.826 13.3z" fill="#030F30"/></svg>