<svg width="28" height="17" fill="none" xmlns="http://www.w3.org/2000/svg"><path d="M27.75 15.163c-.075-.134-.54-1.21-2.78-3.423-2.346-2.317-2.03-1.94.794-5.946 1.72-2.44 2.408-3.93 2.193-4.567-.205-.607-1.47-.447-1.47-.447L22.28.807s-.312-.045-.545.102c-.226.145-.37.48-.37.48s-.668 1.889-1.557 3.494c-1.874 3.388-2.625 3.566-2.931 3.356-.712-.49-.534-1.97-.534-3.02 0-3.284.467-4.653-.912-5.007-.458-.117-.794-.195-1.965-.208-1.502-.017-2.774.005-3.493.38-.48.25-.85.806-.623.838.278.039.908.18 1.242.665.432.623.417 2.028.417 2.028s.248 3.864-.58 4.344c-.568.33-1.347-.342-3.019-3.417-.855-1.573-1.503-3.315-1.503-3.315s-.124-.324-.346-.497C5.29.82 4.913.753 4.913.753l-4 .026S.311.797.09 1.075c-.196.247-.015.758-.015.758S3.208 9.63 6.754 13.56c3.254 3.604 6.946 3.367 6.946 3.367h1.674s.505-.06.763-.355c.238-.272.229-.783.229-.783s-.033-2.389 1.01-2.74c1.027-.347 2.347 2.308 3.745 3.33 1.057.774 1.86.604 1.86.604l3.74-.056s1.957-.128 1.03-1.765z" fill="#030F30"/></svg>