<svg width="28" height="28" fill="none" xmlns="http://www.w3.org/2000/svg"><path fill-rule="evenodd" clip-rule="evenodd" d="M0 9.147c0-.91 0-1.365.036-1.749A8.167 8.167 0 017.398.036C7.782 0 8.237 0 9.147 0h9.706c.91 0 1.365 0 1.749.036a8.167 8.167 0 017.362 7.362c.036.384.036.839.036 1.749v9.706c0 .91 0 1.365-.036 1.749a8.167 8.167 0 01-7.362 7.362c-.384.036-.839.036-1.749.036H9.147c-.91 0-1.365 0-1.749-.036a8.167 8.167 0 01-7.362-7.362C0 20.218 0 19.763 0 18.853V9.147zM24 5.5a1.5 1.5 0 11-3 0 1.5 1.5 0 013 0zM19 14a5 5 0 11-10 0 5 5 0 0110 0zm2 0a7 7 0 11-14 0 7 7 0 0114 0z" fill="#030F30"/></svg>