<svg width="30" height="24" fill="none" xmlns="http://www.w3.org/2000/svg"><path d="M30 2.844a12.612 12.612 0 01-3.534.956A6.094 6.094 0 0029.174.45a12.358 12.358 0 01-3.91 1.469A6.197 6.197 0 0020.769 0c-3.4 0-6.153 2.713-6.153 6.056-.003.465.05.93.158 1.382A17.544 17.544 0 012.087 1.106 5.98 5.98 0 001.25 4.15c0 2.1 1.096 3.956 2.75 5.044a6.094 6.094 0 01-2.799-.756v.075c0 2.937 2.125 5.38 4.938 5.937a6.298 6.298 0 01-1.622.213c-.388 0-.775-.037-1.156-.113.781 2.406 3.057 4.156 5.753 4.206a12.475 12.475 0 01-7.645 2.594c-.491 0-.982-.03-1.469-.088A17.417 17.417 0 009.421 24C20.756 24 26.95 14.769 26.95 6.763c0-.263-.007-.525-.02-.782A12.406 12.406 0 0030 2.844z" fill="#030F30"/></svg>