<svg width="18" height="12" fill="none" xmlns="http://www.w3.org/2000/svg"><path d="M.4 11L4.6.5h1.8L10.6 11H8.875l-1.05-2.7h-4.65L2.125 11H.4zm3.375-4.2h3.45L5.5 2.45 3.775 6.8zM15.703 11V9.95c-.14.21-.33.41-.57.6-.54.4-1.125.6-1.755.6-.7 0-1.275-.205-1.725-.615-.45-.41-.675-.905-.675-1.485 0-.59.185-1.085.555-1.485.38-.4.895-.655 1.545-.765l2.625-.45c0-.39-.14-.71-.42-.96-.28-.26-.64-.39-1.08-.39-.44 0-.895.165-1.365.495-.17.12-.34.28-.51.48L11.353 5c.2-.26.44-.485.72-.675.63-.45 1.34-.675 2.13-.675.89 0 1.61.265 2.16.795.56.52.84 1.18.84 1.98V11h-1.5zm0-3.225V7.55l-2.1.375c-.75.13-1.125.455-1.125.975 0 .27.105.5.315.69.22.19.515.285.885.285.57 0 1.05-.2 1.44-.6.39-.4.585-.9.585-1.5z" fill="#B5BABF"/></svg>