<svg width="20" height="20" fill="none" xmlns="http://www.w3.org/2000/svg"><path d="M0 0h20v20H0z"/><path d="M10.75 3h-1.5v3.125H3.5v1.5h4.778a11.666 11.666 0 01-1.14 1.843c-.853 1.135-2.132 2.438-4.184 3.932l.883 1.213c2.149-1.565 3.542-2.968 4.5-4.243.364-.483.662-.944.913-1.383v3.842H6.5v1.5h2.75V17h1.5v-2.67h2.75v-1.5h-2.75V8.986c.251.439.55.9.912 1.383.96 1.275 2.352 2.678 4.5 4.243l.884-1.213c-2.052-1.494-3.331-2.797-4.185-3.932a11.67 11.67 0 01-1.139-1.843H16.5v-1.5h-5.75V3z" fill="#B5BABF"/></svg>