<svg width="18" height="12" viewBox="0 0 18 12" fill="none" xmlns="http://www.w3.org/2000/svg">
<path d="M0.400024 11L4.60002 0.5H6.40002L10.6 11H8.87502L7.82502 8.3H3.17502L2.12502 11H0.400024ZM3.77502 6.8H7.22502L5.50002 2.45L3.77502 6.8Z" fill="#B5BABF"/>
<path d="M15.703 11V9.95C15.563 10.16 15.373 10.36 15.133 10.55C14.593 10.95 14.008 11.15 13.378 11.15C12.678 11.15 12.103 10.945 11.653 10.535C11.203 10.125 10.978 9.63 10.978 9.05C10.978 8.46 11.163 7.965 11.533 7.565C11.913 7.165 12.428 6.91 13.078 6.8L15.703 6.35C15.703 5.96 15.563 5.64 15.283 5.39C15.003 5.13 14.643 5 14.203 5C13.763 5 13.308 5.165 12.838 5.495C12.668 5.615 12.498 5.775 12.328 5.975L11.353 5C11.553 4.74 11.793 4.515 12.073 4.325C12.703 3.875 13.413 3.65 14.203 3.65C15.093 3.65 15.813 3.915 16.363 4.445C16.923 4.965 17.203 5.625 17.203 6.425V11H15.703ZM15.703 7.775V7.55L13.603 7.925C12.853 8.055 12.478 8.38 12.478 8.9C12.478 9.17 12.583 9.4 12.793 9.59C13.013 9.78 13.308 9.875 13.678 9.875C14.248 9.875 14.728 9.675 15.118 9.275C15.508 8.875 15.703 8.375 15.703 7.775Z" fill="#B5BABF"/>
</svg>
