<svg width="20" height="20" viewBox="0 0 20 20" fill="none" xmlns="http://www.w3.org/2000/svg">
<path d="M16.25 2.44995H3.75C2.71447 2.44995 1.875 3.28942 1.875 4.32495V15.575C1.875 16.6105 2.71447 17.45 3.75 17.45H16.25C17.2855 17.45 18.125 16.6105 18.125 15.575V4.32495C18.125 3.28942 17.2855 2.44995 16.25 2.44995Z" stroke="#5357C1" stroke-width="1.8" stroke-linejoin="round"/>
<path d="M6.39844 13.1266C7.51865 13.1266 8.42676 12.2185 8.42676 11.0983C8.42676 9.97806 7.51865 9.06995 6.39844 9.06995C5.27823 9.06995 4.37012 9.97806 4.37012 11.0983C4.37012 12.2185 5.27823 13.1266 6.39844 13.1266Z" fill="#5357C1"/>
<path d="M15 1.19995V3.39995M5 1.19995V3.39995V1.19995Z" stroke="#5357C1" stroke-width="1.8" stroke-linecap="round" stroke-linejoin="round"/>
<path d="M18.125 6.57495H1.875" stroke="#5357C1" stroke-width="1.8" stroke-linejoin="round"/>
</svg>
