<svg width="20" height="20" viewBox="0 0 20 20" fill="none" xmlns="http://www.w3.org/2000/svg">
<rect width="20" height="20" />
<path d="M16.25 2.44995H3.75C2.71447 2.44995 1.875 3.28942 1.875 4.32495V15.575C1.875 16.6105 2.71447 17.45 3.75 17.45H16.25C17.2855 17.45 18.125 16.6105 18.125 15.575V4.32495C18.125 3.28942 17.2855 2.44995 16.25 2.44995Z" stroke="#5357C1" stroke-width="1.8" stroke-linejoin="round"/>
<path d="M13.5967 14.9766C14.7169 14.9766 15.625 14.0685 15.625 12.9482C15.625 11.828 14.7169 10.9199 13.5967 10.9199C12.4765 10.9199 11.5684 11.828 11.5684 12.9482C11.5684 14.0685 12.4765 14.9766 13.5967 14.9766Z" fill="#5357C1"/>
<path d="M15 1.19995V3.39995M5 1.19995V3.39995V1.19995Z" stroke="#5357C1" stroke-width="1.8" stroke-linecap="round" stroke-linejoin="round"/>
<path d="M18.125 6.57495H1.875" stroke="#5357C1" stroke-width="1.8" stroke-linejoin="round"/>
</svg>
