<svg width="20" height="20" viewBox="0 0 20 20" fill="none" xmlns="http://www.w3.org/2000/svg">
<rect width="20" height="20"/>
<path d="M10.75 3H9.25V6.12524H3.5V7.62524H8.27777C7.99193 8.1998 7.63357 8.81016 7.13859 9.4684C6.28531 10.6031 5.00635 11.9056 2.95422 13.4001L3.83727 14.6126C5.98595 13.0478 7.37892 11.6446 8.33746 10.3699C8.70066 9.88691 8.99866 9.42601 9.25 8.98741V12.8293H6.5V14.3293H9.25V17H10.75V14.3293H13.5V12.8293H10.75V8.98741C11.0013 9.42601 11.2993 9.88691 11.6625 10.3699C12.6211 11.6446 14.014 13.0478 16.1627 14.6126L17.0458 13.4001C14.9936 11.9056 13.7147 10.6031 12.8614 9.4684C12.3664 8.81016 12.0081 8.1998 11.7222 7.62524H16.5V6.12524H10.75V3Z" fill="#B5BABF"/>
</svg>
