<svg width="16" height="14" viewBox="0 0 16 14" fill="none" xmlns="http://www.w3.org/2000/svg">
<path d="M8.75 0H7.25V3.12524H1.5V4.62524H6.27777C5.99193 5.1998 5.63357 5.81016 5.13859 6.4684C4.28531 7.60315 3.00635 8.9056 0.954224 10.4001L1.83727 11.6126C3.98595 10.0478 5.37892 8.64462 6.33746 7.36991C6.70066 6.88691 6.99866 6.42601 7.25 5.98741V9.82935H4.5V11.3293H7.25V14H8.75V11.3293H11.5V9.82935H8.75V5.98741C9.00133 6.42601 9.29933 6.88691 9.66253 7.36991C10.6211 8.64462 12.014 10.0478 14.1627 11.6126L15.0458 10.4001C12.9936 8.9056 11.7147 7.60315 10.8614 6.4684C10.3664 5.81016 10.0081 5.1998 9.72223 4.62524H14.5V3.12524H8.75V0Z" fill="#B5BABF"/>
</svg>
