<svg width="28" height="17" viewBox="0 0 28 17" fill="none" xmlns="http://www.w3.org/2000/svg">
<path d="M27.7504 15.1629C27.6752 15.0288 27.2096 13.9524 24.9695 11.74C22.6243 9.4233 22.9393 9.7995 25.764 5.7937C27.4844 3.3541 28.1722 1.86431 27.9569 1.22741C27.7522 0.620303 26.4868 0.780463 26.4868 0.780463L22.2795 0.806532C22.2795 0.806532 21.968 0.761833 21.7352 0.908963C21.5095 1.05421 21.3642 1.38943 21.3642 1.38943C21.3642 1.38943 20.6974 3.2778 19.8083 4.8831C17.934 8.2706 17.1832 8.4494 16.8769 8.2389C16.1646 7.7491 16.3431 6.2686 16.3431 5.2183C16.3431 1.93508 16.8104 0.566292 15.4313 0.212462C14.9727 0.095132 14.6367 0.016922 13.4659 0.00388196C11.9643 -0.012878 10.6919 0.00947243 9.9726 0.383792C9.4931 0.633342 9.1238 1.19016 9.3496 1.22182C9.6278 1.26093 10.2579 1.40246 10.5922 1.88666C11.0245 2.5105 11.0087 3.9147 11.0087 3.9147C11.0087 3.9147 11.2572 7.7789 10.4294 8.2594C9.8606 8.589 9.0818 7.9168 7.41043 4.8421C6.55462 3.2685 5.90707 1.52724 5.90707 1.52724C5.90707 1.52724 5.78282 1.2032 5.56055 1.03C5.29103 0.819572 4.913 0.752522 4.913 0.752522L0.91221 0.778602C0.91221 0.778602 0.31191 0.797223 0.0913995 1.0747C-0.10462 1.32238 0.0756496 1.83265 0.0756496 1.83265C0.0756496 1.83265 3.20838 9.6301 6.75414 13.5614C10.0076 17.1649 13.7004 16.9284 13.7004 16.9284H15.3735C15.3735 16.9284 15.8793 16.8688 16.1366 16.5727C16.3746 16.3008 16.3658 15.7905 16.3658 15.7905C16.3658 15.7905 16.3326 13.4012 17.3757 13.0492C18.403 12.7028 19.7226 15.3585 21.1209 16.3809C22.178 17.1537 22.9813 16.9843 22.9813 16.9843L26.7214 16.9284C26.7214 16.9284 28.678 16.7999 27.7504 15.1629Z" fill="#030F30"/>
</svg>
