<svg width="28" height="28" viewBox="0 0 28 28" fill="none" xmlns="http://www.w3.org/2000/svg">
<path d="M27.4713 0.384917C26.9936 -0.060283 26.2435 -0.123983 25.4678 0.218317H25.4665C24.6508 0.578117 2.3746 11.0809 1.46776 11.5101C1.30282 11.5731 -0.137676 12.1639 0.0107043 13.4799C0.143164 14.6664 1.30091 15.1578 1.44229 15.2145L7.10558 17.346C7.4813 18.7208 8.8664 23.793 9.1727 24.8766C9.3638 25.5521 9.6752 26.4397 10.2209 26.6224C10.6998 26.8254 11.1762 26.6399 11.4844 26.3739L14.9468 22.8438L20.5362 27.6353L20.6693 27.7228C21.0489 27.9076 21.4125 28 21.7596 28C22.0277 28 22.285 27.9447 22.5308 27.8341C23.3682 27.4561 23.7032 26.579 23.7382 26.4796L27.9132 2.62562C28.1679 1.35162 27.8139 0.703417 27.4713 0.384917ZM12.1002 18.1986L10.1897 23.7986L8.2792 16.7986L22.9262 4.89853L12.1002 18.1986Z" fill="#030F30"/>
</svg>
