<svg width="28" height="28" viewBox="0 0 28 28" fill="none" xmlns="http://www.w3.org/2000/svg">
<path fill-rule="evenodd" clip-rule="evenodd" d="M0 9.1467C0 8.2366 1.00583e-07 7.78154 0.0362401 7.39812C0.40517 3.49527 3.49527 0.40517 7.39812 0.0362401C7.78154 1.00583e-07 8.2366 0 9.1467 0H18.8533C19.7634 0 20.2185 1.00583e-07 20.6019 0.0362401C24.5047 0.40517 27.5948 3.49527 27.9638 7.39812C28 7.78154 28 8.2366 28 9.1467V18.8533C28 19.7634 28 20.2185 27.9638 20.6019C27.5948 24.5047 24.5047 27.5948 20.6019 27.9638C20.2185 28 19.7634 28 18.8533 28H9.1467C8.2366 28 7.78154 28 7.39812 27.9638C3.49527 27.5948 0.40517 24.5047 0.0362401 20.6019C1.00583e-07 20.2185 0 19.7634 0 18.8533V9.1467ZM24 5.5C24 6.32843 23.3284 7 22.5 7C21.6716 7 21 6.32843 21 5.5C21 4.67157 21.6716 4 22.5 4C23.3284 4 24 4.67157 24 5.5ZM19 14C19 16.7614 16.7614 19 14 19C11.2386 19 9 16.7614 9 14C9 11.2386 11.2386 9 14 9C16.7614 9 19 11.2386 19 14ZM21 14C21 17.866 17.866 21 14 21C10.134 21 7 17.866 7 14C7 10.134 10.134 7 14 7C17.866 7 21 10.134 21 14Z" fill="#030F30"/>
</svg>
